<?xml version="1.0" encoding="iso-8859-1"?>
<!-- Generator: Adobe Illustrator 21.0.0, SVG Export Plug-In . SVG Version: 6.00 Build 0)  -->
<svg xmlns="http://www.w3.org/2000/svg" xmlns:xlink="http://www.w3.org/1999/xlink" version="1.1" id="Capa_1" x="0px" y="0px" viewBox="0 0 512.053 512.053" style="enable-background:new 0 0 512.053 512.053; fill: #ffffff" xml:space="preserve" width="512" height="512">
<g>
	<g>
		<path d="M15,149.067c-8.401,0-15,6.499-15,14.9v180c0,8.399,6.599,15,15,15h106v-209.9H15z M323.2,34.968    c-4.799-2.701-10.8-2.401-15.3,0.298L151,136.366v235.501l156.599,104.7c5.075,2.818,10.142,3.328,15.601,0.601    c4.801-2.701,7.8-7.8,7.8-13.2v-416.1C331,42.468,328.001,37.366,323.2,34.968z"/>
	</g>
	<g>
		<path d="M375.282,199.036c-4.614-6.899-13.931-8.745-20.801-4.16c-6.899,4.6-8.76,13.916-4.16,20.801    c15.527,23.262,15.513,53.335-0.015,76.611c-4.6,6.885-2.739,16.201,4.16,20.801c6.846,4.564,16.159,2.779,20.801-4.16    C397.548,275.544,397.548,232.405,375.282,199.036z"/>
	</g>
	<g>
		<path d="M475.141,132.473l-6.724-10.093c-4.585-6.914-13.887-8.745-20.801-4.16c-6.885,4.585-8.76,13.901-4.16,20.801    l6.724,10.093c42.48,63.691,42.48,146.016-0.015,209.736l-6.709,10.063c-4.6,6.899-2.739,16.201,4.16,20.801    c7.019,4.653,16.281,2.631,20.801-4.16l6.709-10.063C524.359,301.662,524.359,206.272,475.141,132.473z"/>
	</g>
	<g>
		<path d="M425.204,165.74l-6.724-10.093c-4.6-6.899-13.901-8.745-20.801-4.16c-6.885,4.585-8.76,13.901-4.16,20.801l6.724,10.093    c29.004,43.491,29.004,99.683,0,143.174l-6.724,10.093c-4.6,6.899-2.725,16.216,4.16,20.801c7.019,4.653,16.281,2.631,20.801-4.16    l6.724-10.093C460.946,288.596,460.946,219.338,425.204,165.74z"/>
	</g>
</g>















</svg>
